<svg xmlns="http://www.w3.org/2000/svg" width="256" height="256" viewBox="0 0 100 100"><rect width="100" height="100" rx="50" fill="#ffffff"></rect><path d="M7.98 53.97Q7.51 53.97 7.26 53.73Q7.00 53.49 7.00 53.07L7.00 53.07L7.00 47.22Q7.00 46.80 7.26 46.56Q7.51 46.32 7.98 46.32L7.98 46.32Q8.43 46.32 8.70 46.56Q8.97 46.80 8.97 47.22L8.97 47.22L8.97 47.58Q9.31 46.98 9.84 46.65Q10.36 46.32 10.98 46.32L10.98 46.32Q11.61 46.32 12.12 46.66Q12.63 46.99 12.88 47.58L12.88 47.58Q13.95 46.32 15.30 46.32L15.30 46.32Q16.50 46.32 17.17 47.16Q17.85 48.00 17.85 49.50L17.85 49.50L17.85 53.07Q17.85 53.49 17.58 53.73Q17.31 53.97 16.86 53.97L16.86 53.97Q16.39 53.97 16.14 53.73Q15.88 53.49 15.88 53.07L15.88 53.07L15.88 49.38Q15.88 48.64 15.62 48.26Q15.36 47.88 14.85 47.88L14.85 47.88Q14.41 47.88 14.08 48.12Q13.75 48.36 13.47 48.88L13.47 48.88L13.47 53.07Q13.47 53.49 13.20 53.73Q12.93 53.97 12.48 53.97L12.48 53.97Q12.01 53.97 11.76 53.73Q11.50 53.49 11.50 53.07L11.50 53.07L11.50 49.69Q11.50 47.88 10.47 47.88L10.47 47.88Q9.76 47.88 9.36 48.43Q8.97 48.99 8.97 49.96L8.97 49.96L8.97 53.07Q8.97 53.49 8.70 53.73Q8.43 53.97 7.98 53.97L7.98 53.97ZM22.15 53.97Q21.22 53.97 20.51 53.65Q19.80 53.34 19.40 52.78Q19.00 52.21 19.00 51.48L19.00 51.48Q19.00 50.37 19.92 49.71Q20.85 49.05 22.42 49.05L22.42 49.05Q23.79 49.05 24.61 49.63L24.61 49.63L24.61 49.27Q24.61 48.57 24.18 48.19Q23.74 47.82 22.92 47.82L22.92 47.82Q21.69 47.82 20.80 48.34L20.80 48.34Q20.43 48.55 20.16 48.55L20.16 48.55Q19.83 48.55 19.57 48.25L19.57 48.25Q19.41 48.04 19.41 47.82L19.41 47.82Q19.41 47.44 19.80 47.16L19.80 47.16Q20.34 46.77 21.16 46.54Q21.99 46.32 22.90 46.32L22.90 46.32Q24.64 46.32 25.64 47.11Q26.64 47.89 26.64 49.27L26.64 49.27L26.64 53.13Q26.64 53.52 26.37 53.74Q26.11 53.97 25.66 53.97L25.66 53.97Q25.20 53.97 24.94 53.76Q24.69 53.55 24.69 53.16L24.69 53.16L24.69 52.99Q23.83 53.97 22.15 53.97L22.15 53.97ZM22.62 52.59Q23.56 52.59 24.09 52.30Q24.63 52.00 24.63 51.48L24.63 51.48Q24.63 50.98 24.09 50.68Q23.55 50.38 22.65 50.38L22.65 50.38Q21.84 50.38 21.39 50.67Q20.95 50.95 20.95 51.48L20.95 51.48Q20.95 52.00 21.39 52.30Q21.82 52.59 22.62 52.59L22.62 52.59ZM33.69 51.88Q33.93 52.08 33.93 52.36L33.93 52.36Q33.93 52.65 33.72 52.95L33.72 52.95Q33.39 53.43 32.79 53.70Q32.19 53.97 31.44 53.97L31.44 53.97Q30.24 53.97 29.55 53.32Q28.87 52.66 28.87 51.52L28.87 51.52L28.87 48.01L28.26 48.01Q27.81 48.01 27.54 47.80Q27.27 47.59 27.27 47.25L27.27 47.25Q27.27 46.89 27.53 46.68Q27.79 46.47 28.26 46.47L28.26 46.47L28.87 46.47L28.87 44.20Q28.87 43.78 29.14 43.54Q29.41 43.30 29.86 43.30L29.86 43.30Q30.33 43.30 30.58 43.54Q30.84 43.78 30.84 44.20L30.84 44.20L30.84 46.47L32.28 46.47Q32.74 46.47 33.00 46.68Q33.27 46.89 33.27 47.25L33.27 47.25Q33.27 47.59 33.00 47.80Q32.74 48.01 32.28 48.01L32.28 48.01L30.84 48.01L30.84 51.69Q30.84 52.02 31.04 52.21Q31.24 52.41 31.59 52.41L31.59 52.41Q31.86 52.41 32.06 52.33Q32.26 52.24 32.47 52.05L32.47 52.05Q32.86 51.67 33.19 51.67L33.19 51.67Q33.43 51.67 33.69 51.88L33.69 51.88ZM39.09 53.97Q37.08 53.97 35.97 52.96Q34.86 51.94 34.86 50.13L34.86 50.13Q34.86 48.31 35.97 47.32Q37.08 46.32 39.09 46.32L39.09 46.32Q40.15 46.32 41.01 46.67Q41.88 47.02 42.37 47.67L42.37 47.67Q42.55 47.89 42.55 48.15L42.55 48.15Q42.55 48.54 42.15 48.84L42.15 48.84Q41.97 48.97 41.70 48.97L41.70 48.97Q41.49 48.97 41.26 48.88Q41.04 48.78 40.87 48.60L40.87 48.60Q40.57 48.25 40.10 48.07Q39.63 47.88 39.09 47.88L39.09 47.88Q38.02 47.88 37.43 48.47Q36.84 49.06 36.84 50.13L36.84 50.13Q36.84 51.22 37.43 51.82Q38.02 52.41 39.09 52.41L39.09 52.41Q40.27 52.41 41.11 51.61L41.11 51.61Q41.53 51.19 41.94 51.19L41.94 51.19Q42.21 51.19 42.43 51.37L42.43 51.37Q42.79 51.66 42.79 52.06L42.79 52.06Q42.79 52.32 42.58 52.56L42.58 52.56Q41.89 53.29 41.04 53.63Q40.20 53.97 39.09 53.97L39.09 53.97ZM45.00 53.97Q44.53 53.97 44.28 53.73Q44.02 53.49 44.02 53.07L44.02 53.07L44.02 43.33Q44.02 42.91 44.28 42.67Q44.53 42.43 45.00 42.43L45.00 42.43Q45.45 42.43 45.72 42.67Q45.99 42.91 45.99 43.33L45.99 43.33L45.99 47.65Q46.54 46.96 47.23 46.64Q47.92 46.32 48.84 46.32L48.84 46.32Q50.28 46.32 51.11 47.23Q51.94 48.13 51.94 49.69L51.94 49.69L51.94 53.07Q51.94 53.49 51.67 53.73Q51.40 53.97 50.95 53.97L50.95 53.97Q50.49 53.97 50.23 53.73Q49.98 53.49 49.98 53.07L49.98 53.07L49.98 49.69Q49.98 48.84 49.56 48.36Q49.14 47.88 48.39 47.88L48.39 47.88Q47.25 47.88 46.62 48.55Q45.99 49.21 45.99 50.41L45.99 50.41L45.99 53.07Q45.99 53.49 45.72 53.73Q45.45 53.97 45.00 53.97L45.00 53.97ZM57.10 53.97Q55.93 53.97 55.02 53.51Q54.12 53.05 53.61 52.18Q53.10 51.31 53.10 50.14L53.10 50.14Q53.10 48.97 53.58 48.11Q54.07 47.25 54.99 46.78Q55.90 46.32 57.15 46.32L57.15 46.32Q58.06 46.32 58.69 46.61Q59.32 46.90 59.88 47.49L59.88 47.49L59.89 43.33Q59.89 42.91 60.16 42.67Q60.43 42.43 60.88 42.43L60.88 42.43Q61.33 42.43 61.59 42.67Q61.86 42.90 61.86 43.33L61.86 43.33L61.86 53.07Q61.86 53.50 61.59 53.73Q61.33 53.97 60.88 53.97L60.88 53.97Q60.43 53.97 60.16 53.73Q59.89 53.49 59.89 53.07L59.89 53.07L59.89 52.77Q58.89 53.97 57.10 53.97L57.10 53.97ZM57.40 52.41Q58.57 52.41 59.23 51.81Q59.89 51.21 59.89 50.14L59.89 50.14Q59.89 49.08 59.23 48.48Q58.57 47.88 57.40 47.88L57.40 47.88Q56.31 47.88 55.69 48.48Q55.08 49.08 55.08 50.14L55.08 50.14Q55.08 51.21 55.69 51.81Q56.31 52.41 57.40 52.41L57.40 52.41ZM66.24 53.97Q65.31 53.97 64.59 53.65Q63.88 53.34 63.48 52.78Q63.09 52.21 63.09 51.48L63.09 51.48Q63.09 50.37 64.01 49.71Q64.93 49.05 66.51 49.05L66.51 49.05Q67.87 49.05 68.70 49.63L68.70 49.63L68.70 49.27Q68.70 48.57 68.26 48.19Q67.83 47.82 67.00 47.82L67.00 47.82Q65.77 47.82 64.89 48.34L64.89 48.34Q64.51 48.55 64.24 48.55L64.24 48.55Q63.91 48.55 63.66 48.25L63.66 48.25Q63.49 48.04 63.49 47.82L63.49 47.82Q63.49 47.44 63.88 47.16L63.88 47.16Q64.42 46.77 65.25 46.54Q66.07 46.32 66.99 46.32L66.99 46.32Q68.73 46.32 69.72 47.11Q70.72 47.89 70.72 49.27L70.72 49.27L70.72 53.13Q70.72 53.52 70.46 53.74Q70.20 53.97 69.75 53.97L69.75 53.97Q69.28 53.97 69.03 53.76Q68.77 53.55 68.77 53.16L68.77 53.16L68.77 52.99Q67.92 53.97 66.24 53.97L66.24 53.97ZM66.70 52.59Q67.65 52.59 68.18 52.30Q68.71 52.00 68.71 51.48L68.71 51.48Q68.71 50.98 68.17 50.68Q67.63 50.38 66.73 50.38L66.73 50.38Q65.92 50.38 65.48 50.67Q65.04 50.95 65.04 51.48L65.04 51.48Q65.04 52.00 65.47 52.30Q65.91 52.59 66.70 52.59L66.70 52.59ZM75.75 57.57Q74.65 57.57 73.76 57.23Q72.87 56.89 72.39 56.29L72.39 56.29Q72.19 56.04 72.19 55.77L72.19 55.77Q72.19 55.41 72.54 55.11L72.54 55.11Q72.76 54.93 73.03 54.93L73.03 54.93Q73.44 54.93 73.81 55.33L73.81 55.33Q74.46 56.02 75.70 56.02L75.70 56.02Q76.77 56.02 77.31 55.46Q77.86 54.90 77.86 53.82L77.86 53.82L77.86 53.19Q77.50 53.53 76.93 53.75Q76.36 53.97 75.85 53.97L75.85 53.97Q73.98 53.97 72.93 52.97Q71.88 51.97 71.88 50.19L71.88 50.19L71.88 47.16Q71.88 46.80 72.16 46.56Q72.45 46.32 72.87 46.32L72.87 46.32Q73.27 46.32 73.56 46.57Q73.84 46.81 73.84 47.16L73.84 47.16L73.84 50.19Q73.84 51.27 74.37 51.87Q74.91 52.47 75.85 52.47L75.85 52.47Q76.77 52.47 77.28 51.87Q77.79 51.27 77.79 50.19L77.79 50.19L77.79 47.32Q77.79 46.84 78.05 46.58Q78.31 46.32 78.78 46.32L78.78 46.32Q79.24 46.32 79.50 46.58Q79.75 46.84 79.75 47.32L79.75 47.32L79.75 53.56Q79.75 55.45 78.69 56.51Q77.64 57.57 75.75 57.57L75.75 57.57ZM82.00 50.94Q81.55 50.94 81.30 50.73Q81.04 50.53 81.04 50.17L81.04 50.17Q81.04 49.81 81.29 49.60Q81.54 49.39 82.00 49.39L82.00 49.39L86.47 49.39Q86.94 49.39 87.19 49.60Q87.43 49.81 87.43 50.17L87.43 50.17Q87.43 50.53 87.18 50.73Q86.92 50.94 86.47 50.94L86.47 50.94L82.00 50.94ZM91.99 53.97Q91.54 53.97 91.27 53.73Q91.00 53.49 91.00 53.07L91.00 53.07L91.00 45.28L89.71 45.78Q89.44 45.88 89.19 45.88L89.19 45.88Q88.66 45.88 88.44 45.43L88.44 45.43Q88.33 45.22 88.33 45.00L88.33 45.00Q88.33 44.49 88.96 44.26L88.96 44.26L91.74 43.21Q91.92 43.15 92.11 43.15L92.11 43.15Q92.50 43.15 92.75 43.41Q93.00 43.66 93.00 44.08L93.00 44.08L93.00 53.07Q93.00 53.47 92.72 53.72Q92.44 53.97 91.99 53.97L91.99 53.97Z" fill="#33569c"></path></svg>